<svg xmlns="http://www.w3.org/2000/svg" xmlns:xlink="http://www.w3.org/1999/xlink" width="500" zoomAndPan="magnify" viewBox="0 0 375 374.999991" height="500" preserveAspectRatio="xMidYMid meet" version="1.0"><defs><g/><clipPath id="0ce0cb3c4a"><path d="M 51.976562 51.976562 L 323.023438 51.976562 L 323.023438 323.023438 L 51.976562 323.023438 Z M 51.976562 51.976562 " clip-rule="nonzero"/></clipPath><clipPath id="4c93497deb"><path d="M 187.5 51.976562 C 112.652344 51.976562 51.976562 112.652344 51.976562 187.5 C 51.976562 262.347656 112.652344 323.023438 187.5 323.023438 C 262.347656 323.023438 323.023438 262.347656 323.023438 187.5 C 323.023438 112.652344 262.347656 51.976562 187.5 51.976562 Z M 187.5 51.976562 " clip-rule="nonzero"/></clipPath><clipPath id="5c5764ced9"><path d="M 54.296875 189.992188 L 320.546875 189.992188 L 320.546875 320.492188 L 54.296875 320.492188 Z M 54.296875 189.992188 " clip-rule="nonzero"/></clipPath><clipPath id="7a57c494b0"><path d="M 81.789062 79.519531 L 293.210938 79.519531 L 293.210938 290.9375 L 81.789062 290.9375 Z M 81.789062 79.519531 " clip-rule="nonzero"/></clipPath><clipPath id="2321482196"><path d="M 187.5 79.519531 C 129.117188 79.519531 81.789062 126.847656 81.789062 185.230469 C 81.789062 243.609375 129.117188 290.9375 187.5 290.9375 C 245.882812 290.9375 293.210938 243.609375 293.210938 185.230469 C 293.210938 126.847656 245.882812 79.519531 187.5 79.519531 Z M 187.5 79.519531 " clip-rule="nonzero"/></clipPath><clipPath id="ce3b614cbc"><path d="M 81.789062 79.519531 L 293.207031 79.519531 L 293.207031 290.9375 L 81.789062 290.9375 Z M 81.789062 79.519531 " clip-rule="nonzero"/></clipPath><clipPath id="4e33850ebe"><path d="M 187.5 79.519531 C 129.117188 79.519531 81.789062 126.847656 81.789062 185.226562 C 81.789062 243.609375 129.117188 290.9375 187.5 290.9375 C 245.878906 290.9375 293.207031 243.609375 293.207031 185.226562 C 293.207031 126.847656 245.878906 79.519531 187.5 79.519531 Z M 187.5 79.519531 " clip-rule="nonzero"/></clipPath><clipPath id="568ec75503"><path d="M 137 119 L 279 119 L 279 261 L 137 261 Z M 137 119 " clip-rule="nonzero"/></clipPath><clipPath id="de49b14c30"><path d="M 208.085938 119.851562 L 278.226562 189.992188 L 208.085938 260.136719 L 137.941406 189.992188 Z M 208.085938 119.851562 " clip-rule="nonzero"/></clipPath><clipPath id="b6f4d1c383"><path d="M 208.085938 119.851562 L 278.226562 189.992188 L 208.085938 260.136719 L 137.941406 189.992188 Z M 208.085938 119.851562 " clip-rule="nonzero"/></clipPath><clipPath id="43df337eed"><path d="M 117 127 L 244 127 L 244 254 L 117 254 Z M 117 127 " clip-rule="nonzero"/></clipPath><clipPath id="2e43bfde30"><path d="M 181.660156 127.839844 L 243.503906 189.6875 L 179 254.191406 L 117.15625 192.34375 Z M 181.660156 127.839844 " clip-rule="nonzero"/></clipPath><clipPath id="ca3804d35b"><path d="M 181.660156 127.839844 L 243.503906 189.6875 L 179.199219 253.992188 L 117.355469 192.144531 Z M 181.660156 127.839844 " clip-rule="nonzero"/></clipPath><clipPath id="7440f9413c"><path d="M 96 119 L 238 119 L 238 261 L 96 261 Z M 96 119 " clip-rule="nonzero"/></clipPath><clipPath id="12af7ab76a"><path d="M 166.90625 119.851562 L 237.050781 189.992188 L 166.90625 260.136719 L 96.761719 189.992188 Z M 166.90625 119.851562 " clip-rule="nonzero"/></clipPath><clipPath id="228b9ca338"><path d="M 166.90625 119.851562 L 237.050781 189.992188 L 166.90625 260.136719 L 96.761719 189.992188 Z M 166.90625 119.851562 " clip-rule="nonzero"/></clipPath><clipPath id="a7303869fb"><path d="M 139.75 163.75 L 193.75 163.75 L 193.75 206 L 139.75 206 Z M 139.75 163.75 " clip-rule="nonzero"/></clipPath><clipPath id="57c19011c0"><path d="M 152 207 L 164 207 L 164 217.75 L 152 217.75 Z M 152 207 " clip-rule="nonzero"/></clipPath><clipPath id="f279bac499"><path d="M 174 207 L 186 207 L 186 217.75 L 174 217.75 Z M 174 207 " clip-rule="nonzero"/></clipPath><clipPath id="c72013a0a5"><path d="M 153 176 L 180 176 L 180 194 L 153 194 Z M 153 176 " clip-rule="nonzero"/></clipPath><clipPath id="024bd9acc5"><path d="M 153.84375 176.917969 L 179.179688 179.832031 L 177.464844 194.734375 L 152.132812 191.820312 Z M 153.84375 176.917969 " clip-rule="nonzero"/></clipPath><clipPath id="1a6ff9d8c3"><path d="M 152.140625 191.75 L 177.472656 194.664062 L 179.1875 179.761719 L 153.851562 176.847656 Z M 152.140625 191.75 " clip-rule="nonzero"/></clipPath><clipPath id="0dafc2c657"><path d="M 152.160156 191.753906 L 177.753906 194.695312 L 179.464844 179.832031 L 153.867188 176.886719 Z M 152.160156 191.753906 " clip-rule="nonzero"/></clipPath><clipPath id="72b0cadbd6"><path d="M 152.160156 191.753906 L 177.742188 194.695312 L 179.449219 179.867188 L 153.863281 176.921875 Z M 152.160156 191.753906 " clip-rule="nonzero"/></clipPath><clipPath id="1207716f6d"><path d="M 162 176 L 188 176 L 188 194 L 162 194 Z M 162 176 " clip-rule="nonzero"/></clipPath><clipPath id="776f356e80"><path d="M 161.816406 179.871094 L 187.144531 176.902344 L 188.886719 191.800781 L 163.5625 194.765625 Z M 161.816406 179.871094 " clip-rule="nonzero"/></clipPath><clipPath id="58c1e9b055"><path d="M 189.171875 191.695312 L 163.84375 194.664062 L 162.097656 179.765625 L 187.425781 176.796875 Z M 189.171875 191.695312 " clip-rule="nonzero"/></clipPath><clipPath id="64f17e6b50"><path d="M 189.152344 191.699219 L 163.5625 194.695312 L 161.820312 179.835938 L 187.410156 176.839844 Z M 189.152344 191.699219 " clip-rule="nonzero"/></clipPath><clipPath id="c815490e54"><path d="M 189.152344 191.699219 L 163.574219 194.695312 L 161.839844 179.867188 L 187.414062 176.871094 Z M 189.152344 191.699219 " clip-rule="nonzero"/></clipPath><clipPath id="d5089d24f8"><path d="M 162.09375 163.75 L 177.246094 163.75 L 177.246094 170.007812 L 162.09375 170.007812 Z M 162.09375 163.75 " clip-rule="nonzero"/></clipPath><clipPath id="f07f80a965"><path d="M 169.664062 163.75 L 177.234375 170.007812 L 162.09375 170.007812 Z M 169.664062 163.75 " clip-rule="nonzero"/></clipPath><clipPath id="07d8a748ec"><path d="M 156.085938 177.203125 L 187.585938 177.203125 L 187.585938 182.980469 L 156.085938 182.980469 Z M 156.085938 177.203125 " clip-rule="nonzero"/></clipPath><clipPath id="bc8ec1817e"><path d="M 156.085938 189.992188 L 184.34375 189.992188 L 184.34375 193.742188 L 156.085938 193.742188 Z M 156.085938 189.992188 " clip-rule="nonzero"/></clipPath></defs><rect x="-37.5" width="450" fill="#ffffff" y="-37.499999" height="449.999989" fill-opacity="1"/><rect x="-37.5" width="450" fill="#011f1a" y="-37.499999" height="449.999989" fill-opacity="1"/><g clip-path="url(#0ce0cb3c4a)"><g clip-path="url(#4c93497deb)"><path fill="#ffffff" d="M 51.976562 51.976562 L 323.023438 51.976562 L 323.023438 323.023438 L 51.976562 323.023438 Z M 51.976562 51.976562 " fill-opacity="1" fill-rule="nonzero"/></g></g><g clip-path="url(#5c5764ced9)"><path fill="#011f1a" d="M 320.65625 189.992188 C 319.398438 262.414062 260.285156 320.714844 187.488281 320.714844 C 114.769531 320.714844 55.65625 262.414062 54.398438 189.992188 Z M 320.65625 189.992188 " fill-opacity="1" fill-rule="nonzero"/></g><g clip-path="url(#7a57c494b0)"><g clip-path="url(#2321482196)"><path fill="#011f1a" d="M 81.789062 79.519531 L 293.210938 79.519531 L 293.210938 290.9375 L 81.789062 290.9375 Z M 81.789062 79.519531 " fill-opacity="1" fill-rule="nonzero"/></g></g><g clip-path="url(#ce3b614cbc)"><g clip-path="url(#4e33850ebe)"><path stroke-linecap="butt" transform="matrix(0.75, 0, 0, 0.75, 81.789698, 79.518511)" fill="none" stroke-linejoin="miter" d="M 140.947079 0.00136063 C 63.103324 0.00136063 -0.000846706 63.105531 -0.000846706 140.944078 C -0.000846706 218.787833 63.103324 281.892004 140.947079 281.892004 C 218.785626 281.892004 281.889797 218.787833 281.889797 140.944078 C 281.889797 63.105531 218.785626 0.00136063 140.947079 0.00136063 Z M 140.947079 0.00136063 " stroke="#ffffff" stroke-width="6" stroke-opacity="1" stroke-miterlimit="4"/></g></g><g fill="#ffffff" fill-opacity="1"><g transform="translate(109.07948, 278.722992)"><g><path d="M 0.8125 0.40625 L 0.875 0.46875 C 0.957031 0.53125 1.050781 0.554688 1.15625 0.546875 C 1.257812 0.535156 1.363281 0.503906 1.46875 0.453125 C 1.582031 0.410156 1.6875 0.351562 1.78125 0.28125 C 1.882812 0.21875 1.96875 0.144531 2.03125 0.0625 L 8.5 -8 C 8.550781 -8.070312 8.597656 -8.164062 8.640625 -8.28125 C 8.691406 -8.394531 8.726562 -8.503906 8.75 -8.609375 C 8.769531 -8.722656 8.769531 -8.832031 8.75 -8.9375 C 8.738281 -9.039062 8.691406 -9.125 8.609375 -9.1875 L 8.546875 -9.25 L 8.65625 -9.40625 L 10.828125 -7.671875 L 10.71875 -7.515625 L 10.640625 -7.5625 C 10.554688 -7.632812 10.457031 -7.664062 10.34375 -7.65625 C 10.238281 -7.644531 10.132812 -7.617188 10.03125 -7.578125 C 9.9375 -7.535156 9.835938 -7.476562 9.734375 -7.40625 C 9.640625 -7.332031 9.566406 -7.257812 9.515625 -7.1875 L 2.734375 1.265625 L 6.03125 3.90625 C 6.21875 4.0625 6.421875 4.148438 6.640625 4.171875 C 6.859375 4.203125 7.066406 4.1875 7.265625 4.125 C 7.460938 4.0625 7.644531 3.96875 7.8125 3.84375 C 7.988281 3.726562 8.128906 3.601562 8.234375 3.46875 L 8.390625 3.59375 L 6.859375 5.5 L 0.6875 0.546875 Z M 0.8125 0.40625 "/></g></g></g><g fill="#ffffff" fill-opacity="1"><g transform="translate(116.384052, 284.570175)"><g><path d="M 3.8125 -2.140625 C 3.59375 -1.734375 3.4375 -1.316406 3.34375 -0.890625 C 3.257812 -0.460938 3.242188 -0.046875 3.296875 0.359375 C 3.347656 0.773438 3.488281 1.175781 3.71875 1.5625 C 3.945312 1.945312 4.273438 2.285156 4.703125 2.578125 C 4.941406 2.742188 5.210938 2.875 5.515625 2.96875 C 5.828125 3.070312 6.132812 3.140625 6.4375 3.171875 C 6.75 3.203125 7.054688 3.179688 7.359375 3.109375 C 7.671875 3.046875 7.929688 2.914062 8.140625 2.71875 L 8.296875 2.8125 L 7.484375 4.015625 C 7.421875 3.972656 7.332031 3.945312 7.21875 3.9375 C 7.113281 3.925781 6.988281 3.910156 6.84375 3.890625 C 6.53125 3.867188 6.144531 3.804688 5.6875 3.703125 C 5.226562 3.609375 4.703125 3.359375 4.109375 2.953125 C 3.628906 2.628906 3.222656 2.25 2.890625 1.8125 C 2.554688 1.382812 2.320312 0.914062 2.1875 0.40625 C 2.050781 -0.09375 2.035156 -0.632812 2.140625 -1.21875 C 2.242188 -1.800781 2.507812 -2.40625 2.9375 -3.03125 C 3.207031 -3.425781 3.546875 -3.78125 3.953125 -4.09375 C 4.359375 -4.414062 4.804688 -4.644531 5.296875 -4.78125 C 5.796875 -4.914062 6.328125 -4.9375 6.890625 -4.84375 C 7.453125 -4.757812 8.03125 -4.515625 8.625 -4.109375 C 9.15625 -3.742188 9.554688 -3.332031 9.828125 -2.875 C 10.109375 -2.425781 10.269531 -1.957031 10.3125 -1.46875 C 10.351562 -0.976562 10.285156 -0.46875 10.109375 0.0625 C 9.941406 0.59375 9.6875 1.113281 9.34375 1.625 Z M 8.1875 -3.625 C 7.820312 -3.882812 7.453125 -4.03125 7.078125 -4.0625 C 6.710938 -4.09375 6.351562 -4.054688 6 -3.953125 C 5.644531 -3.847656 5.3125 -3.6875 5 -3.46875 C 4.6875 -3.25 4.414062 -2.992188 4.1875 -2.703125 L 8.71875 0.390625 C 8.9375 0.0664062 9.097656 -0.273438 9.203125 -0.640625 C 9.304688 -1.015625 9.34375 -1.378906 9.3125 -1.734375 C 9.28125 -2.085938 9.175781 -2.429688 9 -2.765625 C 8.820312 -3.097656 8.550781 -3.382812 8.1875 -3.625 Z M 8.1875 -3.625 "/></g></g></g><g fill="#ffffff" fill-opacity="1"><g transform="translate(124.416632, 289.95442)"><g><path d="M 6.171875 -5 L 3.796875 -1 C 3.628906 -0.71875 3.476562 -0.457031 3.34375 -0.21875 C 3.21875 0.0195312 3.132812 0.226562 3.09375 0.40625 C 3.050781 0.59375 3.046875 0.753906 3.078125 0.890625 C 3.117188 1.023438 3.210938 1.140625 3.359375 1.234375 C 3.597656 1.367188 3.882812 1.382812 4.21875 1.28125 C 4.5625 1.1875 4.851562 1.003906 5.09375 0.734375 L 5.234375 0.8125 L 4.515625 2.015625 C 4.421875 1.960938 4.320312 1.953125 4.21875 1.984375 C 4.082031 2.003906 3.90625 2.007812 3.6875 2 C 3.476562 2 3.210938 1.90625 2.890625 1.71875 C 2.492188 1.476562 2.226562 1.210938 2.09375 0.921875 C 1.96875 0.640625 1.929688 0.335938 1.984375 0.015625 C 2.035156 -0.296875 2.144531 -0.613281 2.3125 -0.9375 C 2.476562 -1.257812 2.65625 -1.582031 2.84375 -1.90625 L 5.078125 -5.65625 L 4.140625 -6.203125 L 4.484375 -6.78125 L 5.421875 -6.234375 L 6.296875 -7.71875 C 6.410156 -7.90625 6.488281 -8.09375 6.53125 -8.28125 C 6.570312 -8.46875 6.457031 -8.648438 6.1875 -8.828125 L 6.296875 -8.984375 L 8.265625 -8.546875 L 6.515625 -5.578125 L 8.375 -4.484375 L 8.03125 -3.90625 Z M 6.171875 -5 "/></g></g></g><g fill="#ffffff" fill-opacity="1"><g transform="translate(129.307169, 292.816547)"><g><path d="M 7.234375 -10.640625 C 7.566406 -10.460938 7.742188 -10.222656 7.765625 -9.921875 C 7.796875 -9.617188 7.734375 -9.320312 7.578125 -9.03125 C 7.484375 -8.851562 7.359375 -8.671875 7.203125 -8.484375 C 7.046875 -8.296875 6.84375 -8.128906 6.59375 -7.984375 C 6.34375 -7.847656 6.039062 -7.742188 5.6875 -7.671875 C 5.332031 -7.597656 4.90625 -7.578125 4.40625 -7.609375 L 4.375 -7.828125 C 4.726562 -7.910156 5.007812 -7.992188 5.21875 -8.078125 C 5.4375 -8.171875 5.613281 -8.265625 5.75 -8.359375 C 5.894531 -8.453125 6.003906 -8.550781 6.078125 -8.65625 C 6.160156 -8.757812 6.234375 -8.875 6.296875 -9 C 6.347656 -9.09375 6.363281 -9.175781 6.34375 -9.25 C 6.320312 -9.320312 6.28125 -9.398438 6.21875 -9.484375 C 6.15625 -9.585938 6.097656 -9.703125 6.046875 -9.828125 C 6.003906 -9.953125 6.035156 -10.113281 6.140625 -10.3125 C 6.253906 -10.519531 6.414062 -10.648438 6.625 -10.703125 C 6.84375 -10.765625 7.046875 -10.742188 7.234375 -10.640625 Z M 7.234375 -10.640625 "/></g></g></g><g fill="#ffffff" fill-opacity="1"><g transform="translate(131.617381, 294.143262)"><g><path d="M 7.390625 1.171875 C 7.242188 1.472656 7.03125 1.71875 6.75 1.90625 C 6.476562 2.09375 6.164062 2.210938 5.8125 2.265625 C 5.457031 2.316406 5.082031 2.3125 4.6875 2.25 C 4.289062 2.195312 3.882812 2.070312 3.46875 1.875 C 2.976562 1.632812 2.601562 1.367188 2.34375 1.078125 C 2.09375 0.785156 1.898438 0.519531 1.765625 0.28125 C 1.648438 0.113281 1.546875 -0.03125 1.453125 -0.15625 C 1.359375 -0.28125 1.234375 -0.378906 1.078125 -0.453125 L 1.734375 -1.78125 L 1.921875 -1.703125 C 1.867188 -1.515625 1.878906 -1.28125 1.953125 -1 C 2.023438 -0.726562 2.140625 -0.453125 2.296875 -0.171875 C 2.453125 0.0976562 2.644531 0.359375 2.875 0.609375 C 3.101562 0.859375 3.363281 1.054688 3.65625 1.203125 C 3.863281 1.296875 4.085938 1.375 4.328125 1.4375 C 4.578125 1.5 4.816406 1.519531 5.046875 1.5 C 5.273438 1.488281 5.484375 1.429688 5.671875 1.328125 C 5.867188 1.234375 6.023438 1.078125 6.140625 0.859375 C 6.242188 0.640625 6.269531 0.414062 6.21875 0.1875 C 6.175781 -0.03125 6.085938 -0.25 5.953125 -0.46875 C 5.816406 -0.6875 5.644531 -0.90625 5.4375 -1.125 C 5.226562 -1.34375 5.015625 -1.550781 4.796875 -1.75 C 4.535156 -2 4.28125 -2.253906 4.03125 -2.515625 C 3.789062 -2.773438 3.585938 -3.039062 3.421875 -3.3125 C 3.253906 -3.59375 3.148438 -3.882812 3.109375 -4.1875 C 3.078125 -4.488281 3.132812 -4.789062 3.28125 -5.09375 C 3.40625 -5.363281 3.578125 -5.59375 3.796875 -5.78125 C 4.015625 -5.976562 4.28125 -6.113281 4.59375 -6.1875 C 4.914062 -6.257812 5.28125 -6.257812 5.6875 -6.1875 C 6.101562 -6.125 6.566406 -5.96875 7.078125 -5.71875 C 7.523438 -5.5 7.851562 -5.289062 8.0625 -5.09375 C 8.28125 -4.90625 8.453125 -4.726562 8.578125 -4.5625 C 8.648438 -4.445312 8.726562 -4.347656 8.8125 -4.265625 C 8.894531 -4.191406 9.003906 -4.125 9.140625 -4.0625 L 8.546875 -2.84375 L 8.40625 -2.90625 C 8.382812 -3.382812 8.207031 -3.828125 7.875 -4.234375 C 7.550781 -4.648438 7.164062 -4.96875 6.71875 -5.1875 C 6.425781 -5.320312 6.15625 -5.40625 5.90625 -5.4375 C 5.65625 -5.46875 5.4375 -5.460938 5.25 -5.421875 C 5.0625 -5.378906 4.898438 -5.300781 4.765625 -5.1875 C 4.640625 -5.082031 4.546875 -4.960938 4.484375 -4.828125 C 4.378906 -4.628906 4.347656 -4.429688 4.390625 -4.234375 C 4.441406 -4.046875 4.535156 -3.847656 4.671875 -3.640625 C 4.804688 -3.441406 4.96875 -3.238281 5.15625 -3.03125 C 5.351562 -2.820312 5.566406 -2.613281 5.796875 -2.40625 C 6.054688 -2.144531 6.320312 -1.875 6.59375 -1.59375 C 6.863281 -1.3125 7.082031 -1.023438 7.25 -0.734375 C 7.414062 -0.441406 7.519531 -0.132812 7.5625 0.1875 C 7.613281 0.507812 7.554688 0.835938 7.390625 1.171875 Z M 7.390625 1.171875 "/></g></g></g><g fill="#ffffff" fill-opacity="1"><g transform="translate(143.873811, 299.849063)"><g><path d="M 3.40625 5.015625 C 3.769531 5.140625 4.128906 5.226562 4.484375 5.28125 C 4.835938 5.332031 5.160156 5.34375 5.453125 5.3125 C 5.742188 5.28125 5.992188 5.203125 6.203125 5.078125 C 6.410156 4.953125 6.546875 4.789062 6.609375 4.59375 C 6.679688 4.382812 6.640625 4.175781 6.484375 3.96875 C 6.335938 3.757812 6.113281 3.535156 5.8125 3.296875 C 5.519531 3.066406 5.160156 2.832031 4.734375 2.59375 C 4.316406 2.351562 3.878906 2.113281 3.421875 1.875 L 2.5625 1.359375 C 2.195312 1.492188 1.914062 1.660156 1.71875 1.859375 C 1.519531 2.054688 1.382812 2.25 1.3125 2.4375 C 1.226562 2.695312 1.222656 2.953125 1.296875 3.203125 C 1.367188 3.453125 1.492188 3.691406 1.671875 3.921875 C 1.859375 4.148438 2.097656 4.351562 2.390625 4.53125 C 2.691406 4.71875 3.03125 4.878906 3.40625 5.015625 Z M 5.703125 1.734375 C 6.160156 1.972656 6.53125 2.207031 6.8125 2.4375 C 7.09375 2.675781 7.300781 2.910156 7.4375 3.140625 C 7.570312 3.367188 7.640625 3.597656 7.640625 3.828125 C 7.640625 4.054688 7.597656 4.289062 7.515625 4.53125 C 7.367188 4.9375 7.128906 5.25 6.796875 5.46875 C 6.472656 5.695312 6.097656 5.847656 5.671875 5.921875 C 5.242188 5.992188 4.785156 6 4.296875 5.9375 C 3.804688 5.875 3.320312 5.757812 2.84375 5.59375 C 2.382812 5.425781 1.957031 5.222656 1.5625 4.984375 C 1.164062 4.742188 0.832031 4.472656 0.5625 4.171875 C 0.300781 3.867188 0.125 3.550781 0.03125 3.21875 C -0.0625 2.882812 -0.046875 2.539062 0.078125 2.1875 C 0.179688 1.863281 0.378906 1.59375 0.671875 1.375 C 0.972656 1.164062 1.390625 0.992188 1.921875 0.859375 C 1.585938 0.503906 1.367188 0.0976562 1.265625 -0.359375 C 1.171875 -0.816406 1.191406 -1.238281 1.328125 -1.625 C 1.410156 -1.851562 1.546875 -2.054688 1.734375 -2.234375 C 1.921875 -2.421875 2.175781 -2.570312 2.5 -2.6875 C 2.375 -3 2.304688 -3.289062 2.296875 -3.5625 C 2.296875 -3.84375 2.347656 -4.125 2.453125 -4.40625 C 2.597656 -4.832031 2.832031 -5.203125 3.15625 -5.515625 C 3.476562 -5.828125 3.84375 -6.066406 4.25 -6.234375 C 4.664062 -6.410156 5.113281 -6.5 5.59375 -6.5 C 6.070312 -6.507812 6.554688 -6.429688 7.046875 -6.265625 C 7.554688 -6.085938 8.007812 -5.828125 8.40625 -5.484375 C 8.8125 -5.140625 9.117188 -4.78125 9.328125 -4.40625 L 10.640625 -3.9375 L 10.40625 -3.265625 L 9.5625 -3.5625 C 9.59375 -3.351562 9.601562 -3.109375 9.59375 -2.828125 C 9.59375 -2.546875 9.546875 -2.273438 9.453125 -2.015625 C 9.316406 -1.617188 9.097656 -1.28125 8.796875 -1 C 8.492188 -0.726562 8.132812 -0.515625 7.71875 -0.359375 C 7.3125 -0.210938 6.863281 -0.140625 6.375 -0.140625 C 5.894531 -0.148438 5.410156 -0.238281 4.921875 -0.40625 C 4.460938 -0.5625 4.046875 -0.78125 3.671875 -1.0625 C 3.296875 -1.34375 2.988281 -1.671875 2.75 -2.046875 C 2.59375 -2.003906 2.460938 -1.925781 2.359375 -1.8125 C 2.265625 -1.707031 2.195312 -1.585938 2.15625 -1.453125 C 2.007812 -1.066406 2.078125 -0.703125 2.359375 -0.359375 C 2.640625 -0.0234375 3.035156 0.273438 3.546875 0.546875 Z M 6.59375 -5.703125 C 6.300781 -5.804688 6.007812 -5.851562 5.71875 -5.84375 C 5.425781 -5.832031 5.148438 -5.769531 4.890625 -5.65625 C 4.640625 -5.539062 4.40625 -5.375 4.1875 -5.15625 C 3.976562 -4.9375 3.816406 -4.660156 3.703125 -4.328125 C 3.554688 -3.921875 3.515625 -3.53125 3.578125 -3.15625 C 3.640625 -2.789062 3.757812 -2.457031 3.9375 -2.15625 C 4.125 -1.851562 4.351562 -1.59375 4.625 -1.375 C 4.894531 -1.164062 5.164062 -1.007812 5.4375 -0.90625 C 5.75 -0.800781 6.050781 -0.757812 6.34375 -0.78125 C 6.632812 -0.8125 6.90625 -0.894531 7.15625 -1.03125 C 7.40625 -1.175781 7.625 -1.363281 7.8125 -1.59375 C 8 -1.820312 8.144531 -2.082031 8.25 -2.375 C 8.375 -2.738281 8.414062 -3.097656 8.375 -3.453125 C 8.34375 -3.804688 8.242188 -4.128906 8.078125 -4.421875 C 7.921875 -4.722656 7.707031 -4.984375 7.4375 -5.203125 C 7.175781 -5.429688 6.894531 -5.597656 6.59375 -5.703125 Z M 6.59375 -5.703125 "/></g></g></g><g fill="#ffffff" fill-opacity="1"><g transform="translate(153.219058, 303.07949)"><g><path d="M 7.171875 -4.96875 C 7.097656 -5.25 6.988281 -5.441406 6.84375 -5.546875 C 6.695312 -5.660156 6.515625 -5.75 6.296875 -5.8125 C 6.171875 -5.84375 6.019531 -5.847656 5.84375 -5.828125 C 5.664062 -5.804688 5.488281 -5.765625 5.3125 -5.703125 C 5.132812 -5.648438 4.957031 -5.585938 4.78125 -5.515625 C 4.613281 -5.441406 4.46875 -5.367188 4.34375 -5.296875 L 3 -0.453125 C 2.96875 -0.347656 2.945312 -0.234375 2.9375 -0.109375 C 2.9375 0.00390625 2.945312 0.117188 2.96875 0.234375 C 3 0.359375 3.035156 0.460938 3.078125 0.546875 C 3.128906 0.628906 3.203125 0.6875 3.296875 0.71875 L 3.25 0.90625 L 0.84375 0.234375 L 0.890625 0.046875 C 0.972656 0.0664062 1.0625 0.0507812 1.15625 0 C 1.25 -0.0390625 1.335938 -0.101562 1.421875 -0.1875 C 1.515625 -0.28125 1.585938 -0.378906 1.640625 -0.484375 C 1.691406 -0.585938 1.734375 -0.691406 1.765625 -0.796875 L 3.203125 -6 C 3.253906 -6.175781 3.242188 -6.363281 3.171875 -6.5625 C 3.109375 -6.757812 2.984375 -6.910156 2.796875 -7.015625 L 2.828125 -7.171875 L 4.875 -7.21875 L 4.5625 -6.09375 C 4.707031 -6.207031 4.859375 -6.3125 5.015625 -6.40625 C 5.179688 -6.5 5.359375 -6.578125 5.546875 -6.640625 C 5.734375 -6.703125 5.925781 -6.738281 6.125 -6.75 C 6.332031 -6.769531 6.5625 -6.742188 6.8125 -6.671875 C 6.976562 -6.628906 7.1875 -6.53125 7.4375 -6.375 C 7.6875 -6.21875 7.894531 -6.078125 8.0625 -5.953125 Z M 7.171875 -4.96875 "/></g></g></g><g fill="#ffffff" fill-opacity="1"><g transform="translate(159.804989, 304.962378)"><g><path d="M 4.796875 1.125 C 4.171875 0.988281 3.625 0.765625 3.15625 0.453125 C 2.695312 0.148438 2.320312 -0.21875 2.03125 -0.65625 C 1.738281 -1.09375 1.546875 -1.578125 1.453125 -2.109375 C 1.367188 -2.640625 1.382812 -3.195312 1.5 -3.78125 C 1.625 -4.40625 1.84375 -4.953125 2.15625 -5.421875 C 2.476562 -5.890625 2.863281 -6.265625 3.3125 -6.546875 C 3.769531 -6.835938 4.273438 -7.03125 4.828125 -7.125 C 5.390625 -7.21875 5.976562 -7.203125 6.59375 -7.078125 C 7.1875 -6.953125 7.710938 -6.738281 8.171875 -6.4375 C 8.640625 -6.144531 9.023438 -5.785156 9.328125 -5.359375 C 9.628906 -4.941406 9.832031 -4.46875 9.9375 -3.9375 C 10.039062 -3.40625 10.03125 -2.847656 9.90625 -2.265625 C 9.800781 -1.722656 9.601562 -1.210938 9.3125 -0.734375 C 9.03125 -0.265625 8.664062 0.128906 8.21875 0.453125 C 7.78125 0.773438 7.269531 1 6.6875 1.125 C 6.113281 1.257812 5.484375 1.257812 4.796875 1.125 Z M 6.234375 -6.5 C 5.765625 -6.570312 5.335938 -6.546875 4.953125 -6.421875 C 4.566406 -6.296875 4.226562 -6.097656 3.9375 -5.828125 C 3.644531 -5.566406 3.394531 -5.253906 3.1875 -4.890625 C 2.976562 -4.523438 2.835938 -4.144531 2.765625 -3.75 C 2.671875 -3.28125 2.65625 -2.8125 2.71875 -2.34375 C 2.78125 -1.875 2.910156 -1.441406 3.109375 -1.046875 C 3.304688 -0.660156 3.570312 -0.320312 3.90625 -0.03125 C 4.238281 0.25 4.640625 0.4375 5.109375 0.53125 C 5.585938 0.625 6.023438 0.601562 6.421875 0.46875 C 6.816406 0.332031 7.164062 0.132812 7.46875 -0.125 C 7.78125 -0.394531 8.039062 -0.722656 8.25 -1.109375 C 8.457031 -1.492188 8.597656 -1.890625 8.671875 -2.296875 C 8.753906 -2.703125 8.773438 -3.128906 8.734375 -3.578125 C 8.691406 -4.023438 8.570312 -4.445312 8.375 -4.84375 C 8.175781 -5.25 7.898438 -5.597656 7.546875 -5.890625 C 7.203125 -6.179688 6.765625 -6.382812 6.234375 -6.5 Z M 6.234375 -6.5 "/></g></g></g><g fill="#ffffff" fill-opacity="1"><g transform="translate(170.164653, 307.112539)"><g><path d="M 13.453125 -6.578125 C 13.222656 -6.609375 13.039062 -6.566406 12.90625 -6.453125 C 12.769531 -6.335938 12.632812 -6.160156 12.5 -5.921875 L 8.859375 1.0625 L 7.015625 -5.265625 L 3.9375 0.546875 L 1.8125 -6.796875 C 1.738281 -7.023438 1.644531 -7.25 1.53125 -7.46875 C 1.414062 -7.695312 1.25 -7.820312 1.03125 -7.84375 L 1.0625 -8.046875 L 3.6875 -7.78125 L 3.65625 -7.578125 C 3.570312 -7.585938 3.457031 -7.554688 3.3125 -7.484375 C 3.175781 -7.421875 3.097656 -7.300781 3.078125 -7.125 C 3.078125 -7.09375 3.078125 -7.03125 3.078125 -6.9375 C 3.085938 -6.851562 3.101562 -6.78125 3.125 -6.71875 L 4.546875 -1.859375 L 7.578125 -7.59375 L 9.40625 -1.359375 L 11.796875 -5.921875 C 11.878906 -6.097656 11.925781 -6.226562 11.9375 -6.3125 C 11.945312 -6.40625 11.921875 -6.5 11.859375 -6.59375 C 11.796875 -6.6875 11.6875 -6.75 11.53125 -6.78125 L 11.5625 -6.984375 L 13.484375 -6.78125 Z M 13.453125 -6.578125 "/></g></g></g><g fill="#ffffff" fill-opacity="1"><g transform="translate(183.495539, 308.305086)"><g/></g></g><g fill="#ffffff" fill-opacity="1"><g transform="translate(188.729346, 308.436369)"><g><path d="M 2.625 -7.515625 L 2.703125 -2.859375 C 2.710938 -2.523438 2.722656 -2.222656 2.734375 -1.953125 C 2.753906 -1.679688 2.789062 -1.457031 2.84375 -1.28125 C 2.90625 -1.101562 2.988281 -0.960938 3.09375 -0.859375 C 3.195312 -0.765625 3.335938 -0.71875 3.515625 -0.71875 C 3.785156 -0.726562 4.035156 -0.863281 4.265625 -1.125 C 4.503906 -1.394531 4.648438 -1.707031 4.703125 -2.0625 L 4.875 -2.0625 L 4.90625 -0.65625 C 4.789062 -0.65625 4.695312 -0.613281 4.625 -0.53125 C 4.53125 -0.445312 4.390625 -0.347656 4.203125 -0.234375 C 4.015625 -0.128906 3.734375 -0.0703125 3.359375 -0.0625 C 2.898438 -0.0507812 2.535156 -0.132812 2.265625 -0.3125 C 2.003906 -0.488281 1.8125 -0.722656 1.6875 -1.015625 C 1.570312 -1.316406 1.5 -1.644531 1.46875 -2 C 1.445312 -2.363281 1.429688 -2.734375 1.421875 -3.109375 L 1.34375 -7.484375 L 0.265625 -7.46875 L 0.25 -8.140625 L 1.328125 -8.15625 L 1.28125 -9.875 C 1.28125 -10.09375 1.25 -10.296875 1.1875 -10.484375 C 1.125 -10.671875 0.929688 -10.765625 0.609375 -10.765625 L 0.609375 -10.953125 L 2.53125 -11.625 L 2.609375 -8.1875 L 4.765625 -8.21875 L 4.78125 -7.546875 Z M 2.625 -7.515625 "/></g></g></g><g fill="#ffffff" fill-opacity="1"><g transform="translate(194.55751, 308.390281)"><g><path d="M 8.5 -2 C 8.507812 -1.90625 8.53125 -1.796875 8.5625 -1.671875 C 8.601562 -1.546875 8.65625 -1.429688 8.71875 -1.328125 C 8.789062 -1.234375 8.863281 -1.148438 8.9375 -1.078125 C 9.019531 -1.015625 9.113281 -0.988281 9.21875 -1 L 9.234375 -0.8125 L 6.734375 -0.59375 L 6.71875 -0.78125 C 6.8125 -0.78125 6.890625 -0.820312 6.953125 -0.90625 C 7.023438 -1 7.085938 -1.097656 7.140625 -1.203125 C 7.191406 -1.316406 7.222656 -1.4375 7.234375 -1.5625 C 7.253906 -1.6875 7.257812 -1.796875 7.25 -1.890625 L 6.9375 -5.46875 C 6.894531 -5.9375 6.789062 -6.335938 6.625 -6.671875 C 6.46875 -7.003906 6.269531 -7.273438 6.03125 -7.484375 C 5.800781 -7.691406 5.546875 -7.835938 5.265625 -7.921875 C 4.984375 -8.015625 4.695312 -8.046875 4.40625 -8.015625 C 4.125 -7.992188 3.847656 -7.914062 3.578125 -7.78125 C 3.316406 -7.644531 3.085938 -7.472656 2.890625 -7.265625 C 2.691406 -7.054688 2.535156 -6.804688 2.421875 -6.515625 C 2.304688 -6.234375 2.265625 -5.925781 2.296875 -5.59375 L 2.65625 -1.484375 C 2.664062 -1.390625 2.6875 -1.28125 2.71875 -1.15625 C 2.757812 -1.039062 2.8125 -0.929688 2.875 -0.828125 C 2.945312 -0.734375 3.019531 -0.648438 3.09375 -0.578125 C 3.175781 -0.503906 3.269531 -0.472656 3.375 -0.484375 L 3.390625 -0.296875 L 0.890625 -0.078125 L 0.875 -0.265625 C 0.96875 -0.273438 1.046875 -0.320312 1.109375 -0.40625 C 1.179688 -0.488281 1.242188 -0.582031 1.296875 -0.6875 C 1.347656 -0.800781 1.378906 -0.921875 1.390625 -1.046875 C 1.398438 -1.171875 1.398438 -1.28125 1.390625 -1.375 L 0.53125 -11.21875 C 0.507812 -11.4375 0.457031 -11.640625 0.375 -11.828125 C 0.300781 -12.015625 0.109375 -12.101562 -0.203125 -12.09375 L -0.21875 -12.28125 L 1.640625 -13.046875 L 2.140625 -7.46875 C 2.222656 -7.582031 2.328125 -7.707031 2.453125 -7.84375 C 2.585938 -7.988281 2.75 -8.125 2.9375 -8.25 C 3.125 -8.375 3.347656 -8.476562 3.609375 -8.5625 C 3.867188 -8.65625 4.179688 -8.71875 4.546875 -8.75 C 5.148438 -8.800781 5.664062 -8.742188 6.09375 -8.578125 C 6.53125 -8.410156 6.898438 -8.171875 7.203125 -7.859375 C 7.503906 -7.554688 7.734375 -7.21875 7.890625 -6.84375 C 8.046875 -6.46875 8.140625 -6.09375 8.171875 -5.71875 Z M 8.5 -2 "/></g></g></g><g fill="#ffffff" fill-opacity="1"><g transform="translate(205.191352, 307.427456)"><g><path d="M 1.25 -4.171875 C 1.375 -3.742188 1.550781 -3.34375 1.78125 -2.96875 C 2.019531 -2.59375 2.300781 -2.273438 2.625 -2.015625 C 2.945312 -1.753906 3.320312 -1.566406 3.75 -1.453125 C 4.175781 -1.335938 4.644531 -1.328125 5.15625 -1.421875 C 5.445312 -1.472656 5.738281 -1.5625 6.03125 -1.6875 C 6.332031 -1.820312 6.601562 -1.988281 6.84375 -2.1875 C 7.082031 -2.394531 7.285156 -2.625 7.453125 -2.875 C 7.617188 -3.132812 7.71875 -3.414062 7.75 -3.71875 L 7.9375 -3.75 L 8.171875 -2.3125 C 8.085938 -2.289062 8.003906 -2.242188 7.921875 -2.171875 C 7.847656 -2.109375 7.75 -2.03125 7.625 -1.9375 C 7.394531 -1.75 7.078125 -1.53125 6.671875 -1.28125 C 6.273438 -1.03125 5.722656 -0.84375 5.015625 -0.71875 C 4.441406 -0.613281 3.882812 -0.601562 3.34375 -0.6875 C 2.800781 -0.78125 2.304688 -0.960938 1.859375 -1.234375 C 1.410156 -1.503906 1.019531 -1.882812 0.6875 -2.375 C 0.351562 -2.863281 0.125 -3.476562 0 -4.21875 C -0.0820312 -4.6875 -0.0820312 -5.175781 0 -5.6875 C 0.0703125 -6.195312 0.234375 -6.671875 0.484375 -7.109375 C 0.742188 -7.554688 1.109375 -7.941406 1.578125 -8.265625 C 2.046875 -8.597656 2.632812 -8.820312 3.34375 -8.9375 C 3.976562 -9.050781 4.550781 -9.039062 5.0625 -8.90625 C 5.570312 -8.78125 6.015625 -8.550781 6.390625 -8.21875 C 6.765625 -7.894531 7.070312 -7.484375 7.3125 -6.984375 C 7.5625 -6.484375 7.742188 -5.925781 7.859375 -5.3125 Z M 3.375 -8.296875 C 2.925781 -8.222656 2.554688 -8.066406 2.265625 -7.828125 C 1.972656 -7.597656 1.734375 -7.320312 1.546875 -7 C 1.367188 -6.6875 1.242188 -6.34375 1.171875 -5.96875 C 1.109375 -5.59375 1.09375 -5.222656 1.125 -4.859375 L 6.546875 -5.796875 C 6.472656 -6.160156 6.34375 -6.507812 6.15625 -6.84375 C 5.976562 -7.1875 5.753906 -7.472656 5.484375 -7.703125 C 5.222656 -7.941406 4.910156 -8.117188 4.546875 -8.234375 C 4.191406 -8.359375 3.800781 -8.378906 3.375 -8.296875 Z M 3.375 -8.296875 "/></g></g></g><g fill="#ffffff" fill-opacity="1"><g transform="translate(214.698047, 305.713305)"><g/></g></g><g fill="#ffffff" fill-opacity="1"><g transform="translate(219.889813, 304.551397)"><g><path d="M 5.734375 2.015625 C 6.097656 1.910156 6.4375 1.769531 6.75 1.59375 C 7.0625 1.425781 7.328125 1.242188 7.546875 1.046875 C 7.765625 0.847656 7.914062 0.640625 8 0.421875 C 8.09375 0.203125 8.113281 -0.00390625 8.0625 -0.203125 C 8 -0.410156 7.835938 -0.554688 7.578125 -0.640625 C 7.328125 -0.722656 7.015625 -0.769531 6.640625 -0.78125 C 6.265625 -0.789062 5.835938 -0.765625 5.359375 -0.703125 C 4.878906 -0.648438 4.378906 -0.585938 3.859375 -0.515625 L 2.859375 -0.40625 C 2.648438 -0.09375 2.523438 0.203125 2.484375 0.484375 C 2.441406 0.765625 2.445312 1 2.5 1.1875 C 2.582031 1.445312 2.726562 1.65625 2.9375 1.8125 C 3.144531 1.96875 3.390625 2.082031 3.671875 2.15625 C 3.953125 2.226562 4.269531 2.25 4.625 2.21875 C 4.976562 2.195312 5.347656 2.128906 5.734375 2.015625 Z M 5.625 -1.96875 C 6.132812 -2.0625 6.570312 -2.09375 6.9375 -2.0625 C 7.300781 -2.039062 7.609375 -1.972656 7.859375 -1.859375 C 8.109375 -1.753906 8.296875 -1.609375 8.421875 -1.421875 C 8.554688 -1.242188 8.660156 -1.035156 8.734375 -0.796875 C 8.859375 -0.378906 8.851562 0.015625 8.71875 0.390625 C 8.59375 0.765625 8.375 1.109375 8.0625 1.421875 C 7.757812 1.734375 7.390625 2.007812 6.953125 2.25 C 6.523438 2.488281 6.078125 2.679688 5.609375 2.828125 C 5.140625 2.960938 4.671875 3.050781 4.203125 3.09375 C 3.742188 3.144531 3.316406 3.125 2.921875 3.03125 C 2.535156 2.945312 2.203125 2.796875 1.921875 2.578125 C 1.648438 2.359375 1.460938 2.066406 1.359375 1.703125 C 1.253906 1.390625 1.253906 1.054688 1.359375 0.703125 C 1.472656 0.359375 1.707031 -0.0195312 2.0625 -0.4375 C 1.570312 -0.539062 1.15625 -0.742188 0.8125 -1.046875 C 0.46875 -1.347656 0.238281 -1.695312 0.125 -2.09375 C 0.0507812 -2.332031 0.0351562 -2.582031 0.078125 -2.84375 C 0.117188 -3.101562 0.234375 -3.367188 0.421875 -3.640625 C 0.128906 -3.828125 -0.09375 -4.03125 -0.25 -4.25 C -0.414062 -4.46875 -0.539062 -4.71875 -0.625 -5 C -0.757812 -5.4375 -0.789062 -5.875 -0.71875 -6.3125 C -0.644531 -6.757812 -0.492188 -7.171875 -0.265625 -7.546875 C -0.0351562 -7.929688 0.269531 -8.265625 0.65625 -8.546875 C 1.039062 -8.835938 1.476562 -9.0625 1.96875 -9.21875 C 2.488281 -9.375 3.007812 -9.429688 3.53125 -9.390625 C 4.050781 -9.359375 4.519531 -9.25 4.9375 -9.0625 L 6.265625 -9.46875 L 6.46875 -8.796875 L 5.609375 -8.53125 C 5.753906 -8.382812 5.90625 -8.195312 6.0625 -7.96875 C 6.226562 -7.738281 6.347656 -7.488281 6.421875 -7.21875 C 6.546875 -6.820312 6.566406 -6.421875 6.484375 -6.015625 C 6.410156 -5.609375 6.253906 -5.222656 6.015625 -4.859375 C 5.773438 -4.492188 5.457031 -4.164062 5.0625 -3.875 C 4.675781 -3.59375 4.234375 -3.375 3.734375 -3.21875 C 3.273438 -3.082031 2.804688 -3.015625 2.328125 -3.015625 C 1.859375 -3.023438 1.414062 -3.109375 1 -3.265625 C 0.894531 -3.148438 0.835938 -3.019531 0.828125 -2.875 C 0.816406 -2.726562 0.832031 -2.585938 0.875 -2.453125 C 1 -2.054688 1.269531 -1.804688 1.6875 -1.703125 C 2.113281 -1.597656 2.613281 -1.578125 3.1875 -1.640625 Z M 1.953125 -8.5 C 1.648438 -8.414062 1.382812 -8.28125 1.15625 -8.09375 C 0.9375 -7.90625 0.753906 -7.691406 0.609375 -7.453125 C 0.460938 -7.210938 0.367188 -6.941406 0.328125 -6.640625 C 0.296875 -6.335938 0.332031 -6.015625 0.4375 -5.671875 C 0.550781 -5.265625 0.742188 -4.925781 1.015625 -4.65625 C 1.285156 -4.394531 1.582031 -4.195312 1.90625 -4.0625 C 2.226562 -3.9375 2.5625 -3.863281 2.90625 -3.84375 C 3.25 -3.832031 3.5625 -3.875 3.84375 -3.96875 C 4.144531 -4.050781 4.40625 -4.1875 4.625 -4.375 C 4.851562 -4.570312 5.03125 -4.800781 5.15625 -5.0625 C 5.28125 -5.320312 5.347656 -5.601562 5.359375 -5.90625 C 5.378906 -6.207031 5.347656 -6.503906 5.265625 -6.796875 C 5.148438 -7.171875 4.96875 -7.488281 4.71875 -7.75 C 4.476562 -8.007812 4.203125 -8.207031 3.890625 -8.34375 C 3.585938 -8.488281 3.265625 -8.570312 2.921875 -8.59375 C 2.585938 -8.625 2.265625 -8.59375 1.953125 -8.5 Z M 1.953125 -8.5 "/></g></g></g><g fill="#ffffff" fill-opacity="1"><g transform="translate(229.424931, 301.659495)"><g><path d="M 4.625 -1.6875 C 4.03125 -1.457031 3.453125 -1.34375 2.890625 -1.34375 C 2.335938 -1.351562 1.820312 -1.460938 1.34375 -1.671875 C 0.863281 -1.878906 0.441406 -2.175781 0.078125 -2.5625 C -0.285156 -2.957031 -0.578125 -3.429688 -0.796875 -3.984375 C -1.035156 -4.578125 -1.148438 -5.15625 -1.140625 -5.71875 C -1.128906 -6.28125 -1.007812 -6.804688 -0.78125 -7.296875 C -0.5625 -7.796875 -0.25 -8.234375 0.15625 -8.609375 C 0.5625 -8.992188 1.054688 -9.300781 1.640625 -9.53125 C 2.210938 -9.757812 2.773438 -9.875 3.328125 -9.875 C 3.878906 -9.875 4.394531 -9.773438 4.875 -9.578125 C 5.363281 -9.390625 5.796875 -9.101562 6.171875 -8.71875 C 6.546875 -8.332031 6.84375 -7.863281 7.0625 -7.3125 C 7.269531 -6.800781 7.382812 -6.265625 7.40625 -5.703125 C 7.425781 -5.148438 7.335938 -4.617188 7.140625 -4.109375 C 6.941406 -3.597656 6.632812 -3.128906 6.21875 -2.703125 C 5.8125 -2.285156 5.28125 -1.945312 4.625 -1.6875 Z M 1.65625 -8.859375 C 1.226562 -8.660156 0.882812 -8.40625 0.625 -8.09375 C 0.375 -7.78125 0.195312 -7.429688 0.09375 -7.046875 C 0 -6.660156 -0.03125 -6.253906 0 -5.828125 C 0.03125 -5.410156 0.117188 -5.015625 0.265625 -4.640625 C 0.441406 -4.191406 0.679688 -3.789062 0.984375 -3.4375 C 1.296875 -3.082031 1.640625 -2.796875 2.015625 -2.578125 C 2.398438 -2.359375 2.8125 -2.222656 3.25 -2.171875 C 3.6875 -2.117188 4.128906 -2.179688 4.578125 -2.359375 C 5.023438 -2.535156 5.378906 -2.785156 5.640625 -3.109375 C 5.898438 -3.441406 6.082031 -3.800781 6.1875 -4.1875 C 6.289062 -4.582031 6.328125 -4.992188 6.296875 -5.421875 C 6.265625 -5.859375 6.171875 -6.269531 6.015625 -6.65625 C 5.867188 -7.039062 5.648438 -7.410156 5.359375 -7.765625 C 5.078125 -8.117188 4.742188 -8.410156 4.359375 -8.640625 C 3.984375 -8.867188 3.566406 -9.007812 3.109375 -9.0625 C 2.648438 -9.125 2.164062 -9.054688 1.65625 -8.859375 Z M 1.65625 -8.859375 "/></g></g></g><g fill="#ffffff" fill-opacity="1"><g transform="translate(239.193692, 297.766755)"><g><path d="M 4.46875 -2.078125 C 3.894531 -1.796875 3.332031 -1.632812 2.78125 -1.59375 C 2.226562 -1.550781 1.703125 -1.613281 1.203125 -1.78125 C 0.703125 -1.945312 0.253906 -2.207031 -0.140625 -2.5625 C -0.546875 -2.925781 -0.878906 -3.375 -1.140625 -3.90625 C -1.429688 -4.476562 -1.59375 -5.039062 -1.625 -5.59375 C -1.65625 -6.15625 -1.582031 -6.6875 -1.40625 -7.1875 C -1.238281 -7.695312 -0.960938 -8.160156 -0.578125 -8.578125 C -0.203125 -9.003906 0.265625 -9.351562 0.828125 -9.625 C 1.378906 -9.90625 1.925781 -10.070312 2.46875 -10.125 C 3.019531 -10.175781 3.546875 -10.125 4.046875 -9.96875 C 4.546875 -9.820312 5 -9.570312 5.40625 -9.21875 C 5.8125 -8.863281 6.144531 -8.421875 6.40625 -7.890625 C 6.65625 -7.390625 6.8125 -6.863281 6.875 -6.3125 C 6.945312 -5.769531 6.90625 -5.234375 6.75 -4.703125 C 6.601562 -4.179688 6.34375 -3.691406 5.96875 -3.234375 C 5.601562 -2.773438 5.101562 -2.390625 4.46875 -2.078125 Z M 0.90625 -8.96875 C 0.488281 -8.738281 0.164062 -8.453125 -0.0625 -8.109375 C -0.289062 -7.773438 -0.4375 -7.410156 -0.5 -7.015625 C -0.570312 -6.628906 -0.570312 -6.226562 -0.5 -5.8125 C -0.425781 -5.394531 -0.300781 -5.007812 -0.125 -4.65625 C 0.09375 -4.21875 0.367188 -3.832031 0.703125 -3.5 C 1.035156 -3.175781 1.398438 -2.921875 1.796875 -2.734375 C 2.203125 -2.546875 2.625 -2.445312 3.0625 -2.4375 C 3.5 -2.425781 3.929688 -2.53125 4.359375 -2.75 C 4.796875 -2.957031 5.128906 -3.234375 5.359375 -3.578125 C 5.585938 -3.929688 5.738281 -4.3125 5.8125 -4.71875 C 5.882812 -5.125 5.882812 -5.535156 5.8125 -5.953125 C 5.738281 -6.367188 5.609375 -6.765625 5.421875 -7.140625 C 5.242188 -7.515625 4.992188 -7.863281 4.671875 -8.1875 C 4.359375 -8.519531 4.003906 -8.785156 3.609375 -8.984375 C 3.210938 -9.179688 2.78125 -9.285156 2.3125 -9.296875 C 1.851562 -9.316406 1.382812 -9.207031 0.90625 -8.96875 Z M 0.90625 -8.96875 "/></g></g></g><g fill="#ffffff" fill-opacity="1"><g transform="translate(248.58666, 293.047992)"><g><path d="M 5.984375 -3.65625 L 5.546875 -4.375 C 5.484375 -4.050781 5.347656 -3.703125 5.140625 -3.328125 C 4.941406 -2.960938 4.601562 -2.640625 4.125 -2.359375 C 3.550781 -2.003906 2.984375 -1.796875 2.421875 -1.734375 C 1.859375 -1.679688 1.332031 -1.726562 0.84375 -1.875 C 0.363281 -2.03125 -0.0703125 -2.28125 -0.46875 -2.625 C -0.875 -2.96875 -1.210938 -3.359375 -1.484375 -3.796875 C -1.753906 -4.242188 -1.945312 -4.726562 -2.0625 -5.25 C -2.1875 -5.769531 -2.210938 -6.285156 -2.140625 -6.796875 C -2.066406 -7.304688 -1.875 -7.796875 -1.5625 -8.265625 C -1.257812 -8.742188 -0.828125 -9.15625 -0.265625 -9.5 C 0.109375 -9.71875 0.515625 -9.867188 0.953125 -9.953125 C 1.398438 -10.046875 1.789062 -10.050781 2.125 -9.96875 L 0.171875 -13.171875 C 0.0546875 -13.359375 -0.078125 -13.519531 -0.234375 -13.65625 C -0.390625 -13.789062 -0.601562 -13.78125 -0.875 -13.625 L -0.96875 -13.78125 L 0.359375 -15.3125 L 6.421875 -5.390625 C 6.472656 -5.316406 6.539062 -5.234375 6.625 -5.140625 C 6.707031 -5.046875 6.800781 -4.96875 6.90625 -4.90625 C 7.007812 -4.84375 7.113281 -4.796875 7.21875 -4.765625 C 7.320312 -4.734375 7.414062 -4.742188 7.5 -4.796875 L 7.59375 -4.640625 Z M 3.90625 -2.96875 C 4.132812 -3.113281 4.328125 -3.296875 4.484375 -3.515625 C 4.648438 -3.742188 4.769531 -3.988281 4.84375 -4.25 C 4.914062 -4.519531 4.9375 -4.789062 4.90625 -5.0625 C 4.882812 -5.34375 4.789062 -5.613281 4.625 -5.875 L 3.25 -8.125 C 3.0625 -8.4375 2.820312 -8.675781 2.53125 -8.84375 C 2.25 -9.007812 1.957031 -9.117188 1.65625 -9.171875 C 1.351562 -9.234375 1.054688 -9.238281 0.765625 -9.1875 C 0.484375 -9.132812 0.226562 -9.039062 0 -8.90625 C -0.363281 -8.6875 -0.632812 -8.398438 -0.8125 -8.046875 C -1 -7.703125 -1.109375 -7.332031 -1.140625 -6.9375 C -1.179688 -6.550781 -1.144531 -6.160156 -1.03125 -5.765625 C -0.925781 -5.367188 -0.769531 -5.007812 -0.5625 -4.6875 C -0.320312 -4.289062 -0.0351562 -3.9375 0.296875 -3.625 C 0.640625 -3.320312 1.007812 -3.082031 1.40625 -2.90625 C 1.800781 -2.738281 2.210938 -2.644531 2.640625 -2.625 C 3.078125 -2.613281 3.5 -2.726562 3.90625 -2.96875 Z M 3.90625 -2.96875 "/></g></g></g><g fill="#ffffff" fill-opacity="1"><g transform="translate(257.254172, 287.648839)"><g/></g></g><g fill="#ffffff" fill-opacity="1"><g transform="translate(261.749342, 284.663387)"><g><path d="M 4.78125 -14.1875 C 4.601562 -14.039062 4.507812 -13.878906 4.5 -13.703125 C 4.488281 -13.523438 4.519531 -13.3125 4.59375 -13.0625 L 6.984375 -5.546875 L 1.1875 -8.6875 L 3.15625 -2.40625 L -3.546875 -6.0625 C -3.765625 -6.164062 -3.992188 -6.257812 -4.234375 -6.34375 C -4.472656 -6.425781 -4.675781 -6.398438 -4.84375 -6.265625 L -4.984375 -6.421875 L -2.953125 -8.09375 L -2.8125 -7.9375 C -2.875 -7.882812 -2.929688 -7.78125 -2.984375 -7.625 C -3.035156 -7.476562 -3.003906 -7.332031 -2.890625 -7.1875 C -2.867188 -7.164062 -2.828125 -7.125 -2.765625 -7.0625 C -2.703125 -7.007812 -2.640625 -6.972656 -2.578125 -6.953125 L 1.875 -4.53125 L -0.078125 -10.71875 L 5.640625 -7.640625 L 4.09375 -12.546875 C 4.03125 -12.734375 3.96875 -12.859375 3.90625 -12.921875 C 3.84375 -12.992188 3.753906 -13.046875 3.640625 -13.078125 C 3.535156 -13.109375 3.421875 -13.070312 3.296875 -12.96875 L 3.15625 -13.125 L 4.640625 -14.34375 Z M 4.78125 -14.1875 "/></g></g></g><g fill="#ffffff" fill-opacity="1"><g transform="translate(272.067064, 276.013011)"><g><path d="M 4.234375 -4.203125 L 3.546875 -4.90625 L 3.546875 -4.765625 C 3.546875 -4.304688 3.457031 -3.867188 3.28125 -3.453125 C 3.113281 -3.035156 2.820312 -2.617188 2.40625 -2.203125 C 2.082031 -1.878906 1.769531 -1.640625 1.46875 -1.484375 C 1.164062 -1.335938 0.875 -1.253906 0.59375 -1.234375 C 0.320312 -1.210938 0.0664062 -1.257812 -0.171875 -1.375 C -0.410156 -1.488281 -0.628906 -1.640625 -0.828125 -1.828125 C -1.128906 -2.140625 -1.3125 -2.492188 -1.375 -2.890625 C -1.445312 -3.285156 -1.410156 -3.738281 -1.265625 -4.25 C -1.128906 -4.757812 -0.90625 -5.316406 -0.59375 -5.921875 C -0.289062 -6.535156 0.0820312 -7.203125 0.53125 -7.921875 C 0.164062 -8.273438 -0.1875 -8.492188 -0.53125 -8.578125 C -0.882812 -8.671875 -1.207031 -8.691406 -1.5 -8.640625 C -1.800781 -8.585938 -2.066406 -8.488281 -2.296875 -8.34375 C -2.535156 -8.195312 -2.722656 -8.0625 -2.859375 -7.9375 C -3.109375 -7.6875 -3.28125 -7.4375 -3.375 -7.1875 C -3.476562 -6.945312 -3.539062 -6.703125 -3.5625 -6.453125 C -3.582031 -6.203125 -3.566406 -5.960938 -3.515625 -5.734375 C -3.472656 -5.515625 -3.425781 -5.320312 -3.375 -5.15625 L -3.5 -5.03125 L -4.484375 -6.03125 C -4.421875 -6.101562 -4.375 -6.191406 -4.34375 -6.296875 C -4.320312 -6.398438 -4.28125 -6.515625 -4.21875 -6.640625 C -4.144531 -6.835938 -4.039062 -7.101562 -3.90625 -7.4375 C -3.769531 -7.78125 -3.484375 -8.164062 -3.046875 -8.59375 C -2.546875 -9.09375 -2.078125 -9.4375 -1.640625 -9.625 C -1.203125 -9.8125 -0.796875 -9.878906 -0.421875 -9.828125 C -0.046875 -9.785156 0.300781 -9.65625 0.625 -9.4375 C 0.945312 -9.21875 1.25 -8.96875 1.53125 -8.6875 L 4.234375 -5.96875 C 4.410156 -5.789062 4.617188 -5.660156 4.859375 -5.578125 C 5.109375 -5.503906 5.300781 -5.535156 5.4375 -5.671875 L 5.5625 -5.53125 Z M 2.9375 -5.515625 L 1 -7.46875 L 0.890625 -7.3125 C 0.710938 -7.039062 0.515625 -6.703125 0.296875 -6.296875 C 0.078125 -5.890625 -0.0976562 -5.46875 -0.234375 -5.03125 C -0.378906 -4.601562 -0.453125 -4.191406 -0.453125 -3.796875 C -0.453125 -3.398438 -0.320312 -3.066406 -0.0625 -2.796875 C 0.238281 -2.503906 0.597656 -2.378906 1.015625 -2.421875 C 1.441406 -2.460938 1.847656 -2.675781 2.234375 -3.0625 C 2.535156 -3.363281 2.734375 -3.695312 2.828125 -4.0625 C 2.929688 -4.425781 2.972656 -4.804688 2.953125 -5.203125 Z M 2.9375 -5.515625 "/></g></g></g><g fill="#ffffff" fill-opacity="1"><g transform="translate(278.585826, 269.528555)"><g><path d="M 4.6875 -1.1875 C 4.96875 -0.695312 5.09375 -0.285156 5.0625 0.046875 C 5.03125 0.390625 4.914062 0.671875 4.71875 0.890625 C 4.59375 1.035156 4.460938 1.144531 4.328125 1.21875 C 4.203125 1.289062 4.070312 1.34375 3.9375 1.375 C 3.8125 1.414062 3.703125 1.441406 3.609375 1.453125 C 3.515625 1.460938 3.453125 1.460938 3.421875 1.453125 L 2.65625 -0.0625 C 2.863281 0.0390625 3.035156 0.113281 3.171875 0.15625 C 3.304688 0.175781 3.453125 0.175781 3.609375 0.15625 C 3.765625 0.132812 3.898438 0.0625 4.015625 -0.0625 C 4.210938 -0.289062 4.195312 -0.625 3.96875 -1.0625 L 2.796875 -3.328125 L -4.5625 -5.578125 C -4.71875 -5.628906 -4.921875 -5.660156 -5.171875 -5.671875 C -5.421875 -5.691406 -5.628906 -5.601562 -5.796875 -5.40625 L -5.953125 -5.546875 L -4.28125 -7.46875 L -4.125 -7.328125 C -4.164062 -7.296875 -4.175781 -7.21875 -4.15625 -7.09375 C -4.132812 -6.976562 -4.066406 -6.875 -3.953125 -6.78125 C -3.867188 -6.707031 -3.773438 -6.660156 -3.671875 -6.640625 L 2.015625 -4.859375 L -0.71875 -10.25 C -0.769531 -10.34375 -0.820312 -10.414062 -0.875 -10.46875 C -0.96875 -10.550781 -1.070312 -10.582031 -1.1875 -10.5625 C -1.300781 -10.550781 -1.390625 -10.507812 -1.453125 -10.4375 L -1.609375 -10.578125 L -0.390625 -12 L -0.234375 -11.859375 C -0.359375 -11.703125 -0.40625 -11.507812 -0.375 -11.28125 C -0.34375 -11.0625 -0.273438 -10.84375 -0.171875 -10.625 Z M 4.6875 -1.1875 "/></g></g></g><g fill="#012923" fill-opacity="1"><g transform="translate(88.549719, 137.554156)"><g/></g></g><g fill="#012923" fill-opacity="1"><g transform="translate(90.731122, 133.009329)"><g/></g></g><g fill="#012923" fill-opacity="1"><g transform="translate(93.121236, 128.570704)"><g/></g></g><g fill="#012923" fill-opacity="1"><g transform="translate(95.714896, 124.247872)"><g/></g></g><g fill="#012923" fill-opacity="1"><g transform="translate(98.506519, 120.050142)"><g/></g></g><g fill="#012923" fill-opacity="1"><g transform="translate(101.490079, 115.986589)"><g/></g></g><g fill="#012923" fill-opacity="1"><g transform="translate(104.659124, 112.065988)"><g/></g></g><g fill="#012923" fill-opacity="1"><g transform="translate(107.441892, 108.396985)"><g><path d="M 8.410156 -16.898438 L 8.335938 -16.980469 L 2.347656 -11.476562 L 2.199219 -10.976562 C 5.089844 -13.480469 5.738281 -13.925781 6.285156 -13.335938 L 8.824219 -10.570312 C 8.894531 -9.636719 8.511719 -8.734375 7.507812 -7.8125 C 4.429688 -4.984375 -0.441406 -5.664062 -3.585938 -9.085938 C -6.414062 -12.160156 -6.070312 -15.449219 -3.867188 -17.476562 C -1.320312 -19.820312 1.96875 -18.988281 3.089844 -15.984375 L 3.15625 -16.011719 L 2.566406 -20.84375 C 0.964844 -21.070312 -1.273438 -20.5 -3.394531 -18.546875 C -6.785156 -15.433594 -8.046875 -10.238281 -4.550781 -6.4375 C -1.300781 -2.902344 3.847656 -3.113281 6.988281 -6 C 8.402344 -7.300781 9.082031 -8.835938 9.097656 -10.277344 L 9.886719 -9.089844 L 12.976562 -11.929688 L 12.902344 -12.011719 C 12.152344 -11.476562 11.410156 -11.128906 10.863281 -11.71875 L 7.960938 -14.878906 C 7.417969 -15.46875 7.8125 -16.195312 8.410156 -16.898438 Z M 8.410156 -16.898438 "/></g></g></g><g fill="#012923" fill-opacity="1"><g transform="translate(120.258591, 96.516494)"><g><path d="M -0.824219 -18.511719 C -4.734375 -15.960938 -6.179688 -11.308594 -3.433594 -7.097656 C -0.683594 -2.886719 4.15625 -2.339844 8.066406 -4.890625 C 11.957031 -7.429688 13.402344 -12.082031 10.65625 -16.292969 C 7.910156 -20.503906 3.066406 -21.050781 -0.824219 -18.511719 Z M 8.59375 -5.714844 C 5.226562 -3.519531 0.324219 -5.761719 -2.144531 -9.539062 C -4.207031 -12.703125 -3.953125 -15.988281 -1.371094 -17.675781 C 1.996094 -19.871094 6.902344 -17.632812 9.355469 -13.871094 C 11.433594 -10.691406 11.175781 -7.402344 8.59375 -5.714844 Z M 8.59375 -5.714844 "/></g></g></g><g fill="#012923" fill-opacity="1"><g transform="translate(135.668084, 86.417224)"><g><path d="M 2.308594 -18.386719 C -1.976562 -16.53125 -4.183594 -12.1875 -2.1875 -7.574219 C -0.1875 -2.960938 4.492188 -1.605469 8.777344 -3.460938 C 13.039062 -5.308594 15.25 -9.652344 13.25 -14.265625 C 11.25 -18.875 6.574219 -20.234375 2.308594 -18.386719 Z M 9.4375 -4.1875 C 5.746094 -2.585938 1.289062 -5.625 -0.503906 -9.765625 C -2.007812 -13.230469 -1.203125 -16.425781 1.628906 -17.652344 C 5.316406 -19.253906 9.773438 -16.214844 11.558594 -12.09375 C 13.070312 -8.609375 12.265625 -5.410156 9.4375 -4.1875 Z M 9.4375 -4.1875 "/></g></g></g><g fill="#012923" fill-opacity="1"><g transform="translate(152.655338, 79.121403)"><g><path d="M 3.207031 -16.953125 L -3.527344 -15.242188 L -3.5 -15.132812 C -2.585938 -15.25 -1.765625 -15.203125 -1.570312 -14.425781 L 1.546875 -2.167969 C 1.746094 -1.386719 1.101562 -0.742188 0.296875 -0.191406 L 0.324219 -0.0820312 L 6.625 -1.683594 C 11.433594 -2.90625 14.546875 -6.714844 13.242188 -11.847656 C 12.085938 -16.394531 8.445312 -18.285156 3.207031 -16.953125 Z M 7.078125 -2.167969 C 5.824219 -1.847656 4.820312 -1.894531 3.921875 -2.078125 L 0.414062 -15.875 L 2.429688 -16.386719 C 7.191406 -17.597656 9.976562 -14.707031 11.152344 -10.097656 C 12.421875 -5.09375 10.542969 -3.046875 7.078125 -2.167969 Z M 7.078125 -2.167969 "/></g></g></g><g fill="#012923" fill-opacity="1"><g transform="translate(168.986725, 75.287641)"><g/></g></g><g fill="#012923" fill-opacity="1"><g transform="translate(173.514716, 74.300364)"><g><path d="M 15.625 -16.371094 L 15.621094 -16.460938 L 10.625 -16.203125 L 10.628906 -16.117188 C 12.089844 -15.96875 13.117188 -15.550781 11.964844 -14.015625 L 8.535156 -9.386719 L 4.949219 -13.878906 L 3.617188 -15.847656 L -0.132812 -15.652344 L -0.125 -15.5625 C 0.617188 -15.46875 1.359375 -14.96875 2.339844 -13.746094 L 7.214844 -7.617188 L 3.410156 -2.457031 C 2.277344 -0.945312 1.542969 -0.4375 0.332031 -0.105469 L 0.335938 -0.015625 L 5.332031 -0.273438 L 5.328125 -0.363281 C 3.867188 -0.511719 2.839844 -0.929688 3.988281 -2.464844 L 7.527344 -7.230469 L 10.921875 -2.976562 L 12.519531 -0.640625 L 16.132812 -0.828125 L 16.128906 -0.917969 C 15.359375 -1.078125 14.488281 -1.90625 13.53125 -3.109375 L 8.824219 -9 L 12.546875 -14.023438 C 13.679688 -15.535156 14.414062 -16.042969 15.625 -16.371094 Z M 15.625 -16.371094 "/></g></g></g><g fill="#012923" fill-opacity="1"><g transform="translate(190.410188, 73.74571)"><g/></g></g><g fill="#012923" fill-opacity="1"><g transform="translate(195.011922, 73.625244)"><g><path d="M 18.445312 -4.007812 L 18.460938 -4.117188 L 10.421875 -5.347656 L 9.941406 -5.148438 C 13.699219 -4.460938 14.457031 -4.234375 14.335938 -3.4375 L 13.769531 0.273438 C 13.082031 0.914062 12.136719 1.175781 10.789062 0.96875 C 6.660156 0.339844 4.140625 -3.886719 4.84375 -8.480469 C 5.476562 -12.613281 8.257812 -14.402344 11.21875 -13.949219 C 14.640625 -13.425781 16.046875 -10.339844 14.402344 -7.585938 L 14.464844 -7.554688 L 17.867188 -11.035156 C 17.042969 -12.425781 15.195312 -13.816406 12.347656 -14.25 C 7.796875 -14.945312 2.953125 -12.679688 2.175781 -7.578125 C 1.449219 -2.828125 4.832031 1.054688 9.050781 1.699219 C 10.953125 1.988281 12.578125 1.558594 13.707031 0.671875 L 13.273438 2.027344 L 17.425781 2.664062 L 17.441406 2.550781 C 16.554688 2.304688 15.816406 1.941406 15.941406 1.148438 L 16.585938 -3.09375 C 16.710938 -3.886719 17.523438 -4.035156 18.445312 -4.007812 Z M 18.445312 -4.007812 "/></g></g></g><g fill="#012923" fill-opacity="1"><g transform="translate(212.373817, 76.345326)"><g><path d="M 12.738281 0.886719 L 11.210938 -3.523438 C 14.035156 -3.34375 16.179688 -4.589844 16.871094 -6.808594 C 17.691406 -9.433594 15.902344 -11.417969 12.46875 -12.492188 L 4.980469 -14.828125 L 4.949219 -14.722656 C 5.789062 -14.34375 6.460938 -13.875 6.222656 -13.105469 L 2.320312 -0.609375 C 2.082031 0.15625 1.261719 0.160156 0.351562 -0.0078125 L 0.320312 0.101562 L 5.738281 1.792969 L 5.769531 1.683594 C 4.929688 1.304688 4.257812 0.835938 4.496094 0.0703125 L 6.027344 -4.835938 L 8.734375 -3.988281 L 8.925781 -3.929688 L 11.289062 3.125 L 11.175781 3.488281 L 15.035156 4.695312 L 15.054688 4.628906 C 14.121094 3.730469 13.457031 3.007812 12.738281 0.886719 Z M 6.292969 -5.6875 L 8.65625 -13.261719 L 11.195312 -12.46875 C 15.203125 -11.214844 15.160156 -8.820312 14.492188 -6.6875 C 13.566406 -3.722656 12.140625 -3.347656 9.496094 -4.175781 C 8.34375 -4.535156 7.324219 -5.015625 6.292969 -5.6875 Z M 6.292969 -5.6875 "/></g></g></g><g fill="#012923" fill-opacity="1"><g transform="translate(226.961543, 80.741701)"><g><path d="M 15.507812 -10.140625 C 11.320312 -12.207031 6.582031 -11.078125 4.359375 -6.570312 C 2.136719 -2.0625 4.128906 2.382812 8.320312 4.449219 C 12.488281 6.503906 17.226562 5.375 19.449219 0.867188 C 21.671875 -3.644531 19.675781 -8.085938 15.507812 -10.140625 Z M 9.296875 4.484375 C 5.691406 2.703125 5.121094 -2.65625 7.117188 -6.707031 C 8.785156 -10.09375 11.742188 -11.546875 14.507812 -10.1875 C 18.117188 -8.410156 18.6875 -3.046875 16.703125 0.984375 C 15.023438 4.390625 12.0625 5.84375 9.296875 4.484375 Z M 9.296875 4.484375 "/></g></g></g><g fill="#012923" fill-opacity="1"><g transform="translate(243.498774, 88.512707)"><g><path d="M 25.457031 -0.242188 L 25.402344 -0.171875 C 26.234375 0.800781 26.660156 1.605469 24.875 2.6875 L 14.238281 9.183594 L 17.789062 -2.71875 C 18.394531 -4.761719 19.390625 -4.59375 20.714844 -3.75 L 20.765625 -3.820312 L 16.308594 -7.222656 C 16.398438 -6.789062 16.34375 -6.015625 16.167969 -5.421875 L 14.585938 0.00390625 L 7.773438 4.25 L 11.328125 -7.65625 C 11.929688 -9.699219 12.925781 -9.527344 14.25 -8.683594 L 14.304688 -8.757812 L 9.847656 -12.160156 C 9.9375 -11.726562 9.878906 -10.953125 9.707031 -10.355469 L 5.40625 4.40625 L 5.066406 4.738281 L 7.617188 4.859375 L 14.386719 0.667969 L 11.867188 9.34375 L 11.53125 9.675781 L 14.082031 9.796875 L 25.253906 3.003906 C 27.035156 1.921875 27.761719 1.96875 28.667969 2.324219 L 28.722656 2.253906 Z M 25.457031 -0.242188 "/></g></g></g><g fill="#012923" fill-opacity="1"><g transform="translate(262.445684, 103.440586)"><g><path d="M 21.792969 0.691406 L 12.207031 -9.824219 L 8.308594 -7.269531 L 8.367188 -7.203125 C 11.488281 -8.292969 13.027344 -8.425781 15.316406 -5.917969 L 15.660156 -5.539062 L 5.457031 3.765625 C 4.695312 4.457031 3.988281 4.042969 2.988281 3.113281 L 2.90625 3.1875 L 7.328125 8.042969 L 7.414062 7.964844 C 6.578125 6.882812 6.230469 6.140625 6.992188 5.449219 L 17.195312 -3.851562 L 18.292969 -2.648438 C 19.84375 -0.945312 19.808594 0.839844 17.367188 2.671875 L 17.429688 2.738281 Z M 21.792969 0.691406 "/></g></g></g><g fill="#012923" fill-opacity="1"><g transform="translate(272.729612, 114.604763)"><g><path d="M 22.234375 5.246094 L 22.328125 5.183594 L 19.164062 0.472656 L 19.070312 0.535156 C 19.488281 1.355469 19.71875 2.144531 19.050781 2.59375 L 13.695312 6.195312 L 8.96875 -0.832031 L 14.328125 -4.4375 C 14.996094 -4.882812 15.636719 -4.371094 16.238281 -3.675781 L 16.332031 -3.738281 L 13.167969 -8.445312 L 13.074219 -8.382812 C 13.492188 -7.5625 13.726562 -6.777344 13.058594 -6.328125 L 2.191406 0.976562 C 1.523438 1.425781 0.882812 0.914062 0.28125 0.214844 L 0.1875 0.277344 L 3.351562 4.988281 L 3.445312 4.925781 C 3.027344 4.101562 2.796875 3.316406 3.460938 2.867188 L 8.65625 -0.621094 L 13.378906 6.40625 L 8.1875 9.894531 C 7.519531 10.34375 6.878906 9.832031 6.273438 9.136719 L 6.183594 9.195312 L 9.347656 13.90625 L 9.441406 13.84375 C 9.023438 13.023438 8.789062 12.234375 9.457031 11.789062 L 20.324219 4.484375 C 20.992188 4.035156 21.632812 4.546875 22.234375 5.246094 Z M 22.234375 5.246094 "/></g></g></g><g fill="#012923" fill-opacity="1"><g transform="translate(282.058544, 129.062359)"><g/></g></g><g fill="#012923" fill-opacity="1"><g transform="translate(284.425529, 133.513373)"><g/></g></g><g clip-path="url(#568ec75503)"><g clip-path="url(#de49b14c30)"><g clip-path="url(#b6f4d1c383)"><path fill="#ffffff" d="M 208.085938 119.851562 L 278.226562 189.992188 L 208.085938 260.136719 L 137.941406 189.992188 Z M 208.085938 119.851562 " fill-opacity="1" fill-rule="nonzero"/></g></g></g><g clip-path="url(#43df337eed)"><g clip-path="url(#2e43bfde30)"><g clip-path="url(#ca3804d35b)"><path fill="#012923" d="M 181.660156 127.839844 L 243.503906 189.6875 L 179.242188 253.949219 L 117.398438 192.101562 Z M 181.660156 127.839844 " fill-opacity="1" fill-rule="nonzero"/></g></g></g><g clip-path="url(#7440f9413c)"><g clip-path="url(#12af7ab76a)"><g clip-path="url(#228b9ca338)"><path fill="#ffffff" d="M 166.90625 119.851562 L 237.050781 189.992188 L 166.90625 260.136719 L 96.761719 189.992188 Z M 166.90625 119.851562 " fill-opacity="1" fill-rule="nonzero"/></g></g></g><g clip-path="url(#a7303869fb)"><path fill="#012923" d="M 154.234375 198.152344 L 182.027344 198.152344 C 182.46875 198.152344 182.90625 198.117188 183.339844 198.046875 C 183.773438 197.972656 184.199219 197.863281 184.617188 197.71875 C 185.03125 197.574219 185.433594 197.398438 185.820312 197.183594 C 186.203125 196.972656 186.570312 196.730469 186.914062 196.457031 C 187.257812 196.179688 187.578125 195.878906 187.871094 195.550781 C 188.164062 195.222656 188.429688 194.875 188.664062 194.5 C 188.898438 194.128906 189.097656 193.738281 189.265625 193.332031 C 189.433594 192.921875 189.566406 192.503906 189.664062 192.074219 L 194.019531 173.210938 C 194.082031 172.941406 194.082031 172.675781 194.023438 172.40625 C 193.960938 172.136719 193.84375 171.894531 193.671875 171.675781 C 193.5 171.460938 193.289062 171.292969 193.042969 171.171875 C 192.792969 171.054688 192.53125 170.992188 192.253906 170.992188 L 150.128906 170.992188 L 148.753906 165.148438 C 148.660156 164.738281 148.445312 164.402344 148.117188 164.144531 C 147.785156 163.882812 147.410156 163.75 146.992188 163.75 L 141.558594 163.75 C 141.320312 163.75 141.089844 163.796875 140.867188 163.890625 C 140.644531 163.980469 140.449219 164.113281 140.28125 164.28125 C 140.109375 164.453125 139.980469 164.648438 139.886719 164.871094 C 139.796875 165.089844 139.75 165.324219 139.75 165.5625 C 139.75 165.800781 139.796875 166.035156 139.886719 166.253906 C 139.980469 166.476562 140.109375 166.671875 140.28125 166.84375 C 140.449219 167.011719 140.644531 167.144531 140.867188 167.234375 C 141.089844 167.328125 141.320312 167.371094 141.558594 167.371094 L 145.558594 167.371094 L 152.0625 194.996094 C 151.492188 195.246094 150.980469 195.585938 150.527344 196.011719 C 150.078125 196.4375 149.707031 196.929688 149.425781 197.480469 C 149.140625 198.035156 148.957031 198.621094 148.875 199.234375 C 148.789062 199.851562 148.8125 200.464844 148.9375 201.074219 C 149.066406 201.683594 149.292969 202.253906 149.613281 202.785156 C 149.9375 203.316406 150.339844 203.777344 150.820312 204.171875 C 151.304688 204.5625 151.835938 204.867188 152.421875 205.074219 C 153.007812 205.285156 153.613281 205.390625 154.234375 205.394531 L 188.632812 205.394531 C 188.875 205.394531 189.105469 205.347656 189.328125 205.257812 C 189.546875 205.164062 189.746094 205.035156 189.914062 204.863281 C 190.082031 204.695312 190.214844 204.5 190.304688 204.277344 C 190.398438 204.054688 190.445312 203.824219 190.445312 203.582031 C 190.445312 203.34375 190.398438 203.113281 190.304688 202.890625 C 190.214844 202.667969 190.082031 202.472656 189.914062 202.304688 C 189.746094 202.132812 189.546875 202.003906 189.328125 201.910156 C 189.105469 201.820312 188.875 201.773438 188.632812 201.773438 L 154.234375 201.773438 C 153.992188 201.773438 153.761719 201.726562 153.539062 201.636719 C 153.320312 201.542969 153.121094 201.414062 152.953125 201.242188 C 152.785156 201.074219 152.652344 200.878906 152.5625 200.65625 C 152.46875 200.433594 152.421875 200.203125 152.421875 199.960938 C 152.421875 199.722656 152.46875 199.492188 152.5625 199.269531 C 152.652344 199.046875 152.785156 198.851562 152.953125 198.683594 C 153.121094 198.511719 153.320312 198.382812 153.539062 198.289062 C 153.761719 198.199219 153.992188 198.152344 154.234375 198.152344 Z M 189.980469 174.613281 L 186.136719 191.261719 C 186.03125 191.726562 185.851562 192.160156 185.597656 192.566406 C 185.34375 192.96875 185.03125 193.320312 184.65625 193.617188 C 184.285156 193.914062 183.871094 194.144531 183.421875 194.300781 C 182.96875 194.457031 182.507812 194.53125 182.027344 194.53125 L 155.667969 194.53125 L 150.972656 174.613281 Z M 189.980469 174.613281 " fill-opacity="1" fill-rule="nonzero"/></g><g clip-path="url(#57c19011c0)"><path fill="#012923" d="M 157.855469 207.203125 C 157.496094 207.203125 157.144531 207.238281 156.792969 207.308594 C 156.445312 207.378906 156.105469 207.480469 155.777344 207.617188 C 155.445312 207.753906 155.132812 207.921875 154.835938 208.121094 C 154.539062 208.320312 154.265625 208.542969 154.015625 208.796875 C 153.761719 209.046875 153.535156 209.324219 153.339844 209.617188 C 153.140625 209.914062 152.972656 210.230469 152.835938 210.558594 C 152.699219 210.886719 152.597656 211.226562 152.527344 211.578125 C 152.457031 211.925781 152.421875 212.28125 152.421875 212.636719 C 152.421875 212.992188 152.457031 213.347656 152.527344 213.695312 C 152.597656 214.046875 152.699219 214.386719 152.835938 214.714844 C 152.972656 215.042969 153.140625 215.359375 153.339844 215.65625 C 153.535156 215.949219 153.761719 216.226562 154.015625 216.476562 C 154.265625 216.730469 154.539062 216.953125 154.835938 217.152344 C 155.132812 217.351562 155.445312 217.519531 155.777344 217.65625 C 156.105469 217.792969 156.445312 217.894531 156.792969 217.964844 C 157.144531 218.035156 157.496094 218.066406 157.855469 218.066406 C 158.210938 218.066406 158.5625 218.035156 158.914062 217.964844 C 159.265625 217.894531 159.605469 217.792969 159.933594 217.65625 C 160.261719 217.519531 160.574219 217.351562 160.871094 217.152344 C 161.167969 216.953125 161.441406 216.730469 161.695312 216.476562 C 161.949219 216.226562 162.171875 215.949219 162.371094 215.65625 C 162.570312 215.359375 162.734375 215.042969 162.871094 214.714844 C 163.007812 214.386719 163.113281 214.046875 163.183594 213.695312 C 163.25 213.347656 163.285156 212.992188 163.285156 212.636719 C 163.285156 212.28125 163.25 211.925781 163.183594 211.578125 C 163.113281 211.226562 163.007812 210.886719 162.871094 210.558594 C 162.734375 210.230469 162.570312 209.914062 162.371094 209.617188 C 162.171875 209.324219 161.949219 209.046875 161.695312 208.796875 C 161.441406 208.542969 161.167969 208.320312 160.871094 208.121094 C 160.574219 207.921875 160.261719 207.753906 159.933594 207.617188 C 159.605469 207.480469 159.265625 207.378906 158.914062 207.308594 C 158.5625 207.238281 158.210938 207.203125 157.855469 207.203125 Z M 157.855469 214.445312 C 157.613281 214.445312 157.382812 214.402344 157.160156 214.308594 C 156.941406 214.21875 156.742188 214.085938 156.574219 213.917969 C 156.40625 213.746094 156.273438 213.550781 156.183594 213.328125 C 156.089844 213.109375 156.042969 212.875 156.042969 212.636719 C 156.042969 212.398438 156.089844 212.164062 156.183594 211.945312 C 156.273438 211.722656 156.40625 211.527344 156.574219 211.355469 C 156.742188 211.1875 156.941406 211.054688 157.160156 210.964844 C 157.382812 210.871094 157.613281 210.824219 157.855469 210.824219 C 158.09375 210.824219 158.324219 210.871094 158.546875 210.964844 C 158.769531 211.054688 158.964844 211.1875 159.132812 211.355469 C 159.304688 211.527344 159.433594 211.722656 159.527344 211.945312 C 159.617188 212.164062 159.664062 212.398438 159.664062 212.636719 C 159.664062 212.875 159.617188 213.109375 159.527344 213.328125 C 159.433594 213.550781 159.304688 213.746094 159.132812 213.917969 C 158.964844 214.085938 158.769531 214.21875 158.546875 214.308594 C 158.324219 214.402344 158.09375 214.445312 157.855469 214.445312 Z M 157.855469 214.445312 " fill-opacity="1" fill-rule="nonzero"/></g><g clip-path="url(#f279bac499)"><path fill="#012923" d="M 179.582031 207.203125 C 179.222656 207.203125 178.871094 207.238281 178.519531 207.308594 C 178.171875 207.378906 177.832031 207.480469 177.503906 207.617188 C 177.171875 207.753906 176.859375 207.921875 176.5625 208.121094 C 176.265625 208.320312 175.992188 208.542969 175.742188 208.796875 C 175.488281 209.046875 175.261719 209.324219 175.066406 209.617188 C 174.867188 209.914062 174.699219 210.230469 174.5625 210.558594 C 174.425781 210.886719 174.324219 211.226562 174.253906 211.578125 C 174.183594 211.925781 174.148438 212.28125 174.148438 212.636719 C 174.148438 212.992188 174.183594 213.347656 174.253906 213.695312 C 174.324219 214.046875 174.425781 214.386719 174.5625 214.714844 C 174.699219 215.042969 174.867188 215.359375 175.066406 215.65625 C 175.261719 215.949219 175.488281 216.226562 175.742188 216.476562 C 175.992188 216.730469 176.265625 216.953125 176.5625 217.152344 C 176.859375 217.351562 177.171875 217.519531 177.503906 217.65625 C 177.832031 217.792969 178.171875 217.894531 178.519531 217.964844 C 178.871094 218.035156 179.222656 218.066406 179.582031 218.066406 C 179.9375 218.066406 180.289062 218.035156 180.640625 217.964844 C 180.992188 217.894531 181.332031 217.792969 181.660156 217.65625 C 181.988281 217.519531 182.300781 217.351562 182.597656 217.152344 C 182.894531 216.953125 183.167969 216.730469 183.421875 216.476562 C 183.675781 216.226562 183.898438 215.949219 184.097656 215.65625 C 184.296875 215.359375 184.460938 215.042969 184.597656 214.714844 C 184.734375 214.386719 184.839844 214.046875 184.910156 213.695312 C 184.976562 213.347656 185.011719 212.992188 185.011719 212.636719 C 185.011719 212.28125 184.976562 211.925781 184.910156 211.578125 C 184.839844 211.226562 184.734375 210.886719 184.597656 210.558594 C 184.460938 210.230469 184.296875 209.914062 184.097656 209.617188 C 183.898438 209.324219 183.675781 209.046875 183.421875 208.796875 C 183.167969 208.542969 182.894531 208.320312 182.597656 208.121094 C 182.300781 207.921875 181.988281 207.753906 181.660156 207.617188 C 181.332031 207.480469 180.992188 207.378906 180.640625 207.308594 C 180.289062 207.238281 179.9375 207.203125 179.582031 207.203125 Z M 179.582031 214.445312 C 179.339844 214.445312 179.109375 214.402344 178.886719 214.308594 C 178.667969 214.21875 178.46875 214.085938 178.300781 213.917969 C 178.132812 213.746094 178 213.550781 177.910156 213.328125 C 177.816406 213.109375 177.769531 212.875 177.769531 212.636719 C 177.769531 212.398438 177.816406 212.164062 177.910156 211.945312 C 178 211.722656 178.132812 211.527344 178.300781 211.355469 C 178.46875 211.1875 178.667969 211.054688 178.886719 210.964844 C 179.109375 210.871094 179.339844 210.824219 179.582031 210.824219 C 179.820312 210.824219 180.050781 210.871094 180.273438 210.964844 C 180.496094 211.054688 180.691406 211.1875 180.859375 211.355469 C 181.03125 211.527344 181.160156 211.722656 181.253906 211.945312 C 181.34375 212.164062 181.390625 212.398438 181.390625 212.636719 C 181.390625 212.875 181.34375 213.109375 181.253906 213.328125 C 181.160156 213.550781 181.03125 213.746094 180.859375 213.917969 C 180.691406 214.085938 180.496094 214.21875 180.273438 214.308594 C 180.050781 214.402344 179.820312 214.445312 179.582031 214.445312 Z M 179.582031 214.445312 " fill-opacity="1" fill-rule="nonzero"/></g><g clip-path="url(#c72013a0a5)"><g clip-path="url(#024bd9acc5)"><g clip-path="url(#1a6ff9d8c3)"><g clip-path="url(#0dafc2c657)"><g clip-path="url(#72b0cadbd6)"><path fill="#012923" d="M 164.949219 193.222656 L 158.316406 192.460938 L 153.863281 176.921875 L 179.449219 179.867188 L 171.585938 193.988281 L 164.949219 193.222656 " fill-opacity="1" fill-rule="nonzero"/></g></g></g></g></g><g clip-path="url(#1207716f6d)"><g clip-path="url(#776f356e80)"><g clip-path="url(#58c1e9b055)"><g clip-path="url(#64f17e6b50)"><g clip-path="url(#c815490e54)"><path fill="#012923" d="M 176.363281 193.195312 L 182.996094 192.417969 L 187.414062 176.871094 L 161.839844 179.867188 L 169.730469 193.972656 L 176.363281 193.195312 " fill-opacity="1" fill-rule="nonzero"/></g></g></g></g></g><g clip-path="url(#d5089d24f8)"><g clip-path="url(#f07f80a965)"><path fill="#011f1a" d="M 162.09375 163.75 L 177.246094 163.75 L 177.246094 170.007812 L 162.09375 170.007812 Z M 162.09375 163.75 " fill-opacity="1" fill-rule="nonzero"/></g></g><g clip-path="url(#07d8a748ec)"><path fill="#012923" d="M 185.492188 183.195312 L 158.027344 183.195312 L 156.085938 176.984375 L 187.433594 176.984375 Z M 185.492188 183.195312 " fill-opacity="1" fill-rule="nonzero"/></g><g clip-path="url(#bc8ec1817e)"><path fill="#ffffff" d="M 156.085938 189.992188 L 184.34375 189.992188 L 184.34375 193.742188 L 156.085938 193.742188 Z M 156.085938 189.992188 " fill-opacity="1" fill-rule="nonzero"/></g></svg>